<svg xmlns="http://www.w3.org/2000/svg" xmlns:xlink="http://www.w3.org/1999/xlink" xmlns:lucid="lucid" width="847.5" height="362.33"><g transform="translate(-389.7056274847714 -320)" lucid:page-tab-id="0_0"><path d="M418.6 404.54c-2.34-2.34-2.34-6.14 0-8.5l14.15-14.12c2.34-2.35 6.14-2.35 8.48 0l101.74 101.74c2.35 2.34 2.35 6.14 0 8.48l-14.14 14.14c-2.34 2.34-6.14 2.34-8.48 0z" stroke="#5e5e5e" stroke-width="3" fill="#7ab648"/><path d="M617.24 383.17c2.35-2.34 6.15-2.34 8.5 0l14.7 14.72c2.35 2.34 2.35 6.14 0 8.48L534.5 512.33c-2.35 2.35-6.14 2.35-8.5 0l-14.7-14.72c-2.35-2.33-2.35-6.13 0-8.47z" stroke="#5e5e5e" stroke-width="3" fill="#3aa6dd"/><path d="M409.7 386c0-3.3 2.7-6 6-6h21.14c3.32 0 6 2.7 6 6v228c0 3.3-2.68 6-6 6H415.7c-3.3 0-6-2.7-6-6z" stroke="#5e5e5e" stroke-width="3" fill="#de5f85"/><path d="M616.57 386c0-3.3 2.68-6 6-6h21.14c3.32 0 6 2.7 6 6v228c0 3.3-2.68 6-6 6h-21.13c-3.32 0-6-2.7-6-6z" stroke="#5e5e5e" stroke-width="3" fill="#ef8d22"/><path d="M660 346c0-3.3 2.7-6 6-6h368c3.3 0 6 2.7 6 6v310.33c0 3.32-2.7 6-6 6H666c-3.3 0-6-2.68-6-6z" stroke="#000" stroke-opacity="0" stroke-width="3" fill="#fff" fill-opacity="0"/><use xlink:href="#a" transform="matrix(1,0,0,1,665,345) translate(10.913580246913682 214.66840277777766)"/><path d="M1189.28 387.96c2.35-2.35 6.14-2.35 8.5 0l13.8 13.8c2.34 2.35 2.34 6.15 0 8.5l-103 102.98c-2.33 2.34-6.13 2.34-8.48 0l-13.8-13.8c-2.35-2.35-2.35-6.15 0-8.5z" stroke="#5e5e5e" stroke-width="3" fill="#7ab648"/><path d="M1212.96 588.94c2.34 2.34 2.34 6.14 0 8.5l-14.62 14.6c-2.34 2.35-6.14 2.35-8.48 0l-107.98-107.97c-2.34-2.35-2.34-6.15 0-8.5l14.62-14.6c2.34-2.35 6.14-2.35 8.48 0z" stroke="#5e5e5e" stroke-width="3" fill="#3aa6dd"/><path d="M1050.3 386c0-3.3 2.68-6 6-6h21.13c3.32 0 6 2.7 6 6v228c0 3.3-2.68 6-6 6h-21.14c-3.32 0-6-2.7-6-6z" stroke="#5e5e5e" stroke-width="3" fill="#de5f85"/><path d="M670 591c0-3.3 2.7-6 6-6h303c3.3 0 6-2.7 6-6v-13c0-3.3 2-4.22 4.48-2l36.04 32c2.47 2.22 2.47 5.78 0 8l-36.04 32c-2.47 2.22-4.48 1.3-4.48-2v-13c0-3.3-2.7-6-6-6H676c-3.3 0-6-2.7-6-6z" stroke="#5e5e5e" stroke-width="3" fill="#b2b2b2"/><defs><path fill="#333" d="M24-248c120-7 223 5 221 122C244-46 201 0 124 0H24v-248zM76-40c74 7 117-18 117-86 0-67-45-88-117-82v168" id="b"/><path fill="#333" d="M136-208V0H84v-208H4v-40h212v40h-80" id="c"/><g id="a"><use transform="matrix(0.7283950617283946,0,0,0.7283950617283946,0,0)" xlink:href="#b"/><use transform="matrix(0.7283950617283946,0,0,0.7283950617283946,188.65432098765422,0)" xlink:href="#c"/></g></defs></g></svg>